<svg width="28" height="29" viewBox="0 0 28 29" fill="none" xmlns="http://www.w3.org/2000/svg">
<circle cx="14" cy="14.1697" r="13.5" fill="white" stroke="#E7E7E9"/>
<path d="M16.5515 15.828C16.5985 15.8531 16.625 15.8872 16.625 15.9228C16.625 15.9584 16.5985 15.9925 16.5515 16.0176L16.0247 16.3006C15.9796 16.3264 15.9166 16.3411 15.8507 16.3411C15.7848 16.3411 15.7219 16.3264 15.6768 16.3006L11.1093 13.8468C11.0394 13.8093 11.0001 13.7584 11 13.7053L11 13.6359C11.0001 13.5828 11.0394 13.5319 11.1093 13.4944L15.6768 11.0406C15.7219 11.0148 15.7848 11.0001 15.8507 11.0001C15.9166 11.0001 15.9796 11.0148 16.0247 11.0406L16.5515 11.3236C16.5985 11.3487 16.625 11.3828 16.625 11.4184C16.625 11.454 16.5985 11.4881 16.5515 11.5132L12.5357 13.6706L16.5515 15.828Z" fill="#898989"/>
</svg>
